<?xml version="1.0" encoding="utf-8"?>
<!-- Generator: Adobe Illustrator 26.0.1, SVG Export Plug-In . SVG Version: 6.00 Build 0)  -->
<svg version="1.1" id="Layer_1" xmlns="http://www.w3.org/2000/svg" xmlns:xlink="http://www.w3.org/1999/xlink" x="0px" y="0px"
	 viewBox="0 0 644.6 277.7" style="enable-background:new 0 0 644.6 277.7;" xml:space="preserve">
<style type="text/css">
	.st0{fill:#EB7100;}
</style>
<g>
	<path class="st0" d="M262.4,3.2h13.9V52h25.1v12.3h-39V3.2z"/>
	<path class="st0" d="M323.9,65.1c-12.2,0-22.4-7.6-22.4-22.1c0-14.2,9.7-22.5,21.7-22.5c12.7,0,20.3,9.3,20.3,21.9
		c0,1.3-0.1,3-0.2,4.1h-28.7c0.6,5.2,4.4,8.5,10.3,8.5c3.9,0,7-1.4,10-3.6l5.8,8.1C336.5,63,330.3,65.1,323.9,65.1z M330.8,38.4
		c-0.6-4.3-3.1-7.4-7.8-7.4c-4.5,0-7.5,2.9-8.2,7.4H330.8z"/>
	<path class="st0" d="M385.5,65c-7.1,0-12-1.6-13.3-5.5c-2.8,4.3-7.9,5.6-12,5.6c-8.2,0-15.1-5.3-15.1-13.8
		c0-8.6,7.1-14.2,18.1-14.2c2.9,0,5.7,0.4,7.7,0.8v-1.3c0-3.9-3.2-5.5-7.8-5.5c-4,0-8.3,1.2-11.4,2.9l-3.8-8.5c5.2-3.6,12-5,18-5
		c11.6,0,18.2,5.2,18.2,15.6v13c0,3.7,0.7,5.1,2.9,6.4L385.5,65z M365.2,45.7c-5,0-7.5,1.7-7.5,4.8c0,3.2,2.7,4.3,5.5,4.3
		c3.8,0,7.8-2.2,7.8-6.5v-1.9C369.5,46,367.3,45.7,365.2,45.7z"/>
	<path class="st0" d="M391.7,21.3h10.8l1,6.3h0.1c2.3-4.9,5.7-7.2,11.1-7.2c2,0,3.6,0.3,5.5,1l-2.1,12.4c-1.3-0.4-2.7-0.6-4-0.6
		c-7.4,0-9,6.4-9,13.9v17.1h-13.3V21.3z"/>
	<path class="st0" d="M449.1,64.2V38.9c0-4.1-2.1-6.5-6.1-6.5c-4.5,0-7,3.1-7,7.6v24.3h-13.3V21.3h10.8l0.9,5.1
		c3-4.1,7.6-5.9,12.8-5.9c10.4,0,15.2,7.1,15.2,17.6v26.2H449.1z"/>
	<path class="st0" d="M493.1,21.3l6.6,27.5l6.8-27.5h12.4l7.2,27.5l7.1-27.5h13.2l-14,42.9h-12.9l-7.1-27.5l-6.8,27.5h-12.9
		l-13.9-42.9H493.1z"/>
	<path class="st0" d="M548.3,8.3c0-4.3,3.4-7.8,7.7-7.8c4.3,0,7.7,3.5,7.7,7.8c0,4.3-3.5,7.8-7.7,7.8
		C551.7,16.1,548.3,12.6,548.3,8.3z M549.3,21.3h13.3v42.9h-13.3V21.3z"/>
	<path class="st0" d="M565.9,21.3h7V8.6l13.3-2.3v15h9.5v11.1h-9.5v13.1c0,6.3,3.4,7.8,8.7,8.7l-1.6,10.8c-9.9,0-20.4-3.4-20.4-16.5
		V32.5h-7L565.9,21.3L565.9,21.3z"/>
	<path class="st0" d="M626.7,64.2v-25c0-4.3-2.1-6.8-6.3-6.8c-4.4,0-7.2,2.9-7.2,7.4v24.5h-13.4V2.7l13.3-2.3v24.3
		c2.9-3,7.1-4.2,11.4-4.2c10.5,0,15.5,7,15.5,17.6v26.2H626.7z"/>
	<path class="st0" d="M583.1,196.1c-15.3,0-27.7-13.4-27.7-30c0-16.5,12.4-30,27.7-30c15.3,0,27.7,13.4,27.7,30
		C610.8,182.7,598.3,196.1,583.1,196.1z M575.6,277.3c37.5,0,64.7-27.6,64.7-65.6V103.8h-26l-1.9,9.1l-0.2,0.9l-0.7-0.6
		c-7.8-6.6-18-9.8-31.2-9.8c-33,0-59.8,28.1-59.8,62.7c0,34.6,26.8,62.7,59.8,62.7c8.3,0,16.3-1.7,23.8-5.2l1.1-0.5l-0.4,1.2
		c-4.1,12.5-15.3,20.6-29.1,21c-0.6,0-1.2,0-1.7,0c-5.4,0-13.4-0.8-21.6-8l-1.5-1.4l-19.1,22.1l1.4,1.4
		C545.2,271.7,563.7,277.3,575.6,277.3z"/>
	<path class="st0" d="M456.8,196.1c-15.3,0-27.7-13.5-27.7-30c0-16.5,12.4-30,27.7-30c15.3,0,27.7,13.5,27.7,30
		C484.5,182.7,472.1,196.1,456.8,196.1z M449.4,277.3c37.5,0,64.6-27.6,64.6-65.6V103.8h-26l-1.9,9.1l-0.2,0.9l-0.7-0.6
		c-7.8-6.6-18-9.8-31.2-9.8c-32.9,0-59.7,28.1-59.7,62.7c0,34.6,26.8,62.7,59.7,62.7c8.3,0,16.3-1.7,23.8-5.2l1.2-0.5l-0.4,1.2
		c-4.1,12.5-15.3,20.6-29.2,21.1c-0.6,0-1.2,0-1.7,0c-5.4,0-13.5-0.8-21.6-8.1l-1.5-1.3l-19.1,22l1.3,1.4
		C419,271.7,437.4,277.3,449.4,277.3z"/>
	<path class="st0" d="M127.1,185.3l-6,4c-8.7,5.9-18.8,8.9-29.2,8.9c-29.2,0-52.9-24.2-52.9-53.9c0-29.7,23.8-53.9,52.9-53.9
		c10.4,0,20.5,3.1,29.2,8.9l6,4l15.4-26.9l-5.2-3.6c-14.2-9.9-30.8-15.1-48-15.1c-46.9,0-85,38.8-85,86.6s38.1,86.6,85,86.6
		c17.2,0,33.8-5.2,48-15.1l5.2-3.6L127.1,185.3z"/>
	<path class="st0" d="M247.2,116.2c-9.2-8.6-22.3-13.4-39.3-12.1c-9,0.7-17.6,5.4-21.1,9.3V56.2l-35.1,6.2v166.7h35.1v-61.6
		c-0.7-24.6,8.4-30.5,22.1-30.5c13.4,0,20.8,9.2,20.8,28.9V229h33.6v-69.2C263.3,139.6,257.5,125.8,247.2,116.2z"/>
	<path class="st0" d="M302.2,157.9l0.1-1c0.7-7.6,4.1-14.5,9.4-19.4c5.1-4.7,11.5-7.4,18.1-7.4c13,0,27.3,9.4,28.2,26.8l0,1
		L302.2,157.9L302.2,157.9z M328.9,103.1c-33,0-58.9,28.2-58.9,64.3c0,35.5,27.4,64.3,61.1,64.3c31.4,0,47.7-23.1,50.5-27.5
		l-20.8-14.6c-7.7,8.5-17.1,12.1-29.7,11.4c-5.6-0.3-11.1-2.2-15.5-5.3c-4.9-3.4-8.3-8-9.9-13.4l-0.4-1.2h81.4
		c0.3-2,0.9-7.5,0.9-13.7C387.5,131.3,361.8,103.1,328.9,103.1z"/>
</g>
</svg>
